<svg width="512" height="512" viewBox="0 0 512 512" xmlns="http://www.w3.org/2000/svg">
  <circle cx="256" cy="256" r="240" fill="#030c1e"/>
  <circle cx="256" cy="256" r="240" fill="none" stroke="#162d52" stroke-width="4"/>
  <circle cx="256" cy="256" r="192" fill="none" stroke="#0c1a2e" stroke-width="2"/>

  <!-- S-shaped route trace -->
  <path d="M 256,80 C 360,80 395,140 340,188 C 295,228 195,260 188,308 C 181,356 210,400 256,408" 
        fill="none" stroke="#38bdf8" stroke-width="10" stroke-linecap="round"/>

  <!-- Start pin top -->
  <circle cx="256" cy="68" r="26" fill="#38bdf8"/>
  <circle cx="256" cy="68" r="11" fill="#030c1e"/>
  <polygon points="244,80 268,80 256,100" fill="#38bdf8"/>

  <!-- Waypoint 1 -->
  <circle cx="358" cy="132" r="16" fill="#030c1e" stroke="#38bdf8" stroke-width="4"/>
  <circle cx="358" cy="132" r="6" fill="#2563eb"/>

  <!-- Waypoint 2 (mid) -->
  <circle cx="248" cy="258" r="14" fill="#030c1e" stroke="#2563eb" stroke-width="4"/>
  <circle cx="248" cy="258" r="5" fill="#2563eb"/>

  <!-- Waypoint 3 -->
  <circle cx="188" cy="338" r="16" fill="#030c1e" stroke="#38bdf8" stroke-width="4"/>
  <circle cx="188" cy="338" r="6" fill="#2563eb"/>

  <!-- End arrow -->
  <circle cx="256" cy="408" r="14" fill="#38bdf8"/>
  <polyline points="268,396 286,408 268,420" fill="none" stroke="#38bdf8" stroke-width="7" stroke-linecap="round" stroke-linejoin="round"/>
</svg>
